{"title":"The Secret(The Secret of life) In Hindi By Suraj Sandhu","uid":7148105,"size":550146970,"categoryP":"video","categoryS":"movies","magnet":"?xt=urn:btih:71bc2181a3edccd8ad51b1f83eb060ef8162b9e9&amp;dn=The+Secret%28The+Secret+of+life%29+In+Hindi+By+Suraj+Sandhu&amp;tr=udp%3A%2F%2Ftracker.openbittorrent.com%3A80&amp;tr=udp%3A%2F%2Fopen.demonii.com%3A1337&amp;tr=udp%3A%2F%2Ftracker.coppersurfer.tk%3A6969&amp;tr=udp%3A%2F%2Fexodus.desync.com%3A6969","seeders":1,"leechers":0,"uploader":"ssandhu","files":1,"time":1333203915,"description":"The Secret(The Secret of life) In Hindi By Suraj Sandhu.avi\nFormat : AVI\nFormat/Info : Audio Video Interleave\nFile size : 525 MiB\nDuration : 1h 31mn\nOverall bit rate : 806 Kbps\nMovie name : The Secreat\nDirector : Postarbhai\nWriting library : TMPGEnc 4.0 XPress Version. 4.2.3.193\nCopyright : &lt;a class=&quot;__cf_email__&quot; href=&quot;/cdn-cgi/l/email-protection&quot; data-cfemail=&quot;211252554053494e4c44574845444e61464c40484d0f424e4c&quot;&gt;[email&amp;#160;protected]&lt;/a&gt;&lt;script cf-hash='f9e31' type=&quot;text/javascript&quot;&gt;\n/* &lt;![CDATA[ */!function(){try{var t=&quot;currentScript&quot;in document?document.currentScript:function(){for(var t=document.getElementsByTagName(&quot;script&quot;),e=t.length;e--;)if(t[e].getAttribute(&quot;cf-hash&quot;))return t[e]}();if(t&amp;&amp;t.previousSibling){var e,r,n,i,c=t.previousSibling,a=c.getAttribute(&quot;data-cfemail&quot;);if(a){for(e=&quot;&quot;,r=parseInt(a.substr(0,2),16),n=2;a.length-n;n+=2)i=parseInt(a.substr(n,2),16)^r,e+=String.fromCharCode(i);e=document.createTextNode(e),c.parentNode.replaceChild(e,c)}}}catch(u){}}();/* ]]&gt; */&lt;/script&gt;\nVideo #0\nID : 0\nFormat : MPEG-4 Visual\nFormat profile : AdvancedSimple@L5\nFormat settings, BVOP : Yes\nFormat settings, QPel : No\nFormat settings, GMC : No warppoints\nFormat settings, Matrix : Default (H.263)\nMuxing mode : Packed bitstream\nCodec ID : XVID\nCodec ID/Hint : XviD\nDuration : 1h 31mn\nBit rate : 534 Kbps\nWidth : 592 pixels\nHeight : 266 pixels\nDisplay aspect ratio : 2.226\nFrame rate : 29.970 fps\nResolution : 24 bits\nColorimetry : 4:2:0\nScan type : Progressive\nBits/(Pixel*Frame) : 0.113\nStream size : 348 MiB (66%)\nWriting library : XviD 1.2.1 (UTC 2008-12-04)\nAudio #1\nID : 1\nFormat : MPEG Audio\nFormat version : Version 1\nFormat profile : Layer 3\nCodec ID : 55\nCodec ID/Hint : MP3\nDuration : 1h 31mn\nBit rate mode : Constant\nBit rate : 256 Kbps\nChannel(s) : 2 channels\nSampling rate : 48.0 KHz\nResolution : 16 bits\nStream size : 167 MiB (32%)\nAlignment : Aligned on interleaves\nInterleave, duration : 33 ms (1.00 video frame)\nInterleave, preload duration : 432 ms","torrent":{"xt":"urn:btih:71bc2181a3edccd8ad51b1f83eb060ef8162b9e9","amp;dn":"The+Secret%28The+Secret+of+life%29+In+Hindi+By+Suraj+Sandhu","amp;tr":["udp%3A%2F%2Ftracker.openbittorrent.com%3A80","udp%3A%2F%2Fopen.demonii.com%3A1337","udp%3A%2F%2Ftracker.coppersurfer.tk%3A6969","udp%3A%2F%2Fexodus.desync.com%3A6969"],"infoHash":"71bc2181a3edccd8ad51b1f83eb060ef8162b9e9","infoHashBuffer":{"type":"Buffer","data":[113,188,33,129,163,237,204,216,173,81,177,248,62,176,96,239,129,98,185,233]},"announce":[],"urlList":[]}}